{
  "asset": {
    "generator": "Khronos glTF Blender I/O v4.3.47",
    "version": "2.0"
  },
  "scene": 0,
  "scenes": [
    {
      "name": "Scene",
      "nodes": [0, 1, 2, 3, 4, 5, 6, 7, 8, 9, 10]
    }
  ],
  "nodes": [
    {
      "mesh": 0,
      "name": "B1 hub",
      "rotation": [0, 0.7071068286895752, -0.7071068286895752, 5.338509012631221e-8],
      "scale": [4.783165454864502, 4.783165454864502, 4.783165454864502],
      "translation": [-0.044040605425834656, -0.07233569771051407, -0.04521834850311279]
    },
    {
      "mesh": 1,
      "name": "B1 outer gear",
      "rotation": [
        -0.18375498056411743, 0.6828134059906006, -0.6828130483627319, 0.1837560534477234
      ],
      "scale": [4.783165454864502, 4.783165454864502, 4.783165454864502],
      "translation": [-0.04404003918170929, -0.07233469933271408, 0.04566167667508125]
    },
    {
      "mesh": 2,
      "name": "B2",
      "rotation": [
        -0.6828129887580872, -0.18375632166862488, 0.18375612795352936, 0.6828131675720215
      ],
      "scale": [4.783165454864502, 4.783165454864502, 4.783165454864502],
      "translation": [-0.04403996467590332, -0.07233619689941406, 0.026529090479016304]
    },
    {
      "mesh": 3,
      "name": "B3",
      "rotation": [0, 0.7071068286895752, -0.7071068286895752, 5.338509012631221e-8],
      "scale": [4.783165454864502, 4.783165454864502, 4.783165454864502],
      "translation": [-0.044039107859134674, -0.07233677059412003, -0.12944331765174866]
    },
    {
      "mesh": 4,
      "name": "C1",
      "rotation": [
        -0.7071056962013245, 0.0012895356630906463, -0.0012896422995254397, 0.7071055769920349
      ],
      "scale": [4.783165454864502, 4.783165454864502, 4.783165454864502],
      "translation": [0.010756608098745346, -0.3110673129558563, 0.021745897829532623]
    },
    {
      "mesh": 5,
      "name": "L1",
      "rotation": [
        -0.7071056962013245, 0.0012895356630906463, -0.0012896422995254397, 0.7071055769920349
      ],
      "scale": [4.783165454864502, 4.783165454864502, 4.783165454864502],
      "translation": [-0.23371846973896027, 0.07586932182312012, 0.02652907185256481]
    },
    {
      "mesh": 6,
      "name": "A1",
      "rotation": [0, 0.7071068286895752, -0.7071068286895752, 5.338509012631221e-8],
      "scale": [4.783165454864502, 4.783165454864502, 4.783165454864502],
      "translation": [0.49041974544525146, -0.07233449071645737, -0.07248242199420929]
    },
    {
      "mesh": 7,
      "name": "A1 axle",
      "rotation": [0, 0.7071068286895752, -0.7071068286895752, 5.338509012631221e-8],
      "scale": [4.783165454864502, 4.783165454864502, 4.783165454864502],
      "translation": [0.49089759588241577, -0.07233569771051407, -0.07248236984014511]
    },
    {
      "mesh": 8,
      "name": "L2",
      "rotation": [
        -0.0012914211256429553, -0.7071056962013245, 0.7071055769920349, 0.0012913141399621964
      ],
      "scale": [4.78316593170166, 4.783165454864502, 4.78316593170166],
      "translation": [-0.23386630415916443, 0.07603688538074493, 0.007396399974822998]
    },
    {
      "mesh": 9,
      "name": "M1",
      "rotation": [-0.5309909582138062, -0.46695688366889954, 0.46695676445961, 0.5309907793998718],
      "scale": [4.78316593170166, 4.783165454864502, 4.78316593170166],
      "translation": [-0.09638376533985138, 0.4000149965286255, 0.007396446540951729]
    },
    {
      "mesh": 10,
      "name": "M2",
      "rotation": [
        -0.4669593870639801, 0.5309885740280151, -0.5309886932373047, 0.4669594168663025
      ],
      "scale": [4.783164978027344, 4.783165454864502, 4.783164978027344],
      "translation": [-0.09654883295297623, 0.400168240070343, -0.02130255103111267]
    }
  ],
  "materials": [
    {
      "doubleSided": true,
      "name": "Bronze",
      "pbrMetallicRoughness": {
        "metallicFactor": 1.0409090518951416,
        "roughnessFactor": 0.699999988079071
      }
    }
  ],
  "meshes": [
    {
      "name": "B1 hub",
      "primitives": [
        {
          "attributes": {
            "POSITION": 0,
            "NORMAL": 1,
            "TEXCOORD_0": 2,
            "COLOR_0": 3,
            "COLOR_1": 4
          },
          "indices": 5,
          "material": 0
        }
      ]
    },
    {
      "name": "B1 outer gear",
      "primitives": [
        {
          "attributes": {
            "POSITION": 6,
            "NORMAL": 7,
            "TEXCOORD_0": 8,
            "COLOR_0": 9,
            "COLOR_1": 10
          },
          "indices": 11,
          "material": 0
        }
      ]
    },
    {
      "name": "B2",
      "primitives": [
        {
          "attributes": {
            "POSITION": 12,
            "NORMAL": 13,
            "TEXCOORD_0": 14,
            "COLOR_0": 15,
            "COLOR_1": 16
          },
          "indices": 17,
          "material": 0
        }
      ]
    },
    {
      "name": "B3",
      "primitives": [
        {
          "attributes": {
            "POSITION": 18,
            "NORMAL": 19,
            "TEXCOORD_0": 20,
            "COLOR_0": 21,
            "COLOR_1": 22
          },
          "indices": 23,
          "material": 0
        }
      ]
    },
    {
      "name": "C1",
      "primitives": [
        {
          "attributes": {
            "POSITION": 24,
            "NORMAL": 25,
            "TEXCOORD_0": 26,
            "COLOR_0": 27,
            "COLOR_1": 28
          },
          "indices": 29,
          "material": 0
        }
      ]
    },
    {
      "name": "L1",
      "primitives": [
        {
          "attributes": {
            "POSITION": 30,
            "NORMAL": 31,
            "TEXCOORD_0": 32,
            "COLOR_0": 33,
            "COLOR_1": 34
          },
          "indices": 35,
          "material": 0
        }
      ]
    },
    {
      "name": "A1.003",
      "primitives": [
        {
          "attributes": {
            "POSITION": 36,
            "NORMAL": 37,
            "TEXCOORD_0": 38,
            "COLOR_0": 39,
            "COLOR_1": 40
          },
          "indices": 41,
          "material": 0
        }
      ]
    },
    {
      "name": "A1 axle",
      "primitives": [
        {
          "attributes": {
            "POSITION": 42,
            "NORMAL": 43,
            "TEXCOORD_0": 44,
            "COLOR_0": 45
          },
          "indices": 46
        }
      ]
    },
    {
      "name": "L2.001",
      "primitives": [
        {
          "attributes": {
            "POSITION": 47,
            "NORMAL": 48,
            "TEXCOORD_0": 49,
            "COLOR_0": 50,
            "COLOR_1": 51
          },
          "indices": 52,
          "material": 0
        }
      ]
    },
    {
      "name": "M1.001",
      "primitives": [
        {
          "attributes": {
            "POSITION": 53,
            "NORMAL": 54,
            "TEXCOORD_0": 55,
            "COLOR_0": 56,
            "COLOR_1": 57
          },
          "indices": 58,
          "material": 0
        }
      ]
    },
    {
      "name": "M2",
      "primitives": [
        {
          "attributes": {
            "POSITION": 59,
            "NORMAL": 60,
            "TEXCOORD_0": 61,
            "COLOR_0": 62,
            "COLOR_1": 63
          },
          "indices": 64,
          "material": 0
        }
      ]
    }
  ],
  "accessors": [
    {
      "bufferView": 0,
      "componentType": 5126,
      "count": 362,
      "max": [0.005000203847885132, 0.02000001072883606, 0.004996746778488159],
      "min": [-0.004999801516532898, -0.01999998837709427, -0.00499725341796875],
      "type": "VEC3"
    },
    {
      "bufferView": 1,
      "componentType": 5126,
      "count": 362,
      "type": "VEC3"
    },
    {
      "bufferView": 2,
      "componentType": 5126,
      "count": 362,
      "type": "VEC2"
    },
    {
      "bufferView": 3,
      "componentType": 5121,
      "count": 362,
      "normalized": true,
      "type": "VEC4"
    },
    {
      "bufferView": 4,
      "componentType": 5123,
      "count": 362,
      "normalized": true,
      "type": "VEC4"
    },
    {
      "bufferView": 5,
      "componentType": 5123,
      "count": 1080,
      "type": "SCALAR"
    },
    {
      "bufferView": 6,
      "componentType": 5126,
      "count": 6270,
      "max": [0.11161631345748901, 0.0010001640766859055, 0.11161614954471588],
      "min": [-0.11161588132381439, -0.0010001889895647764, -0.11161604523658752],
      "type": "VEC3"
    },
    {
      "bufferView": 7,
      "componentType": 5126,
      "count": 6270,
      "type": "VEC3"
    },
    {
      "bufferView": 8,
      "componentType": 5126,
      "count": 6270,
      "type": "VEC2"
    },
    {
      "bufferView": 9,
      "componentType": 5121,
      "count": 6270,
      "normalized": true,
      "type": "VEC4"
    },
    {
      "bufferView": 10,
      "componentType": 5123,
      "count": 6270,
      "normalized": true,
      "type": "VEC4"
    },
    {
      "bufferView": 11,
      "componentType": 5123,
      "count": 13104,
      "type": "SCALAR"
    },
    {
      "bufferView": 12,
      "componentType": 5126,
      "count": 2266,
      "max": [0.03259633481502533, 0.001000002957880497, 0.0325966477394104],
      "min": [-0.032596662640571594, -0.000999996904283762, -0.03259636461734772],
      "type": "VEC3"
    },
    {
      "bufferView": 13,
      "componentType": 5126,
      "count": 2266,
      "type": "VEC3"
    },
    {
      "bufferView": 14,
      "componentType": 5126,
      "count": 2266,
      "type": "VEC2"
    },
    {
      "bufferView": 15,
      "componentType": 5121,
      "count": 2266,
      "normalized": true,
      "type": "VEC4"
    },
    {
      "bufferView": 16,
      "componentType": 5123,
      "count": 2266,
      "normalized": true,
      "type": "VEC4"
    },
    {
      "bufferView": 17,
      "componentType": 5123,
      "count": 5262,
      "type": "SCALAR"
    },
    {
      "bufferView": 18,
      "componentType": 5126,
      "count": 2926,
      "max": [0.016758501529693604, 0.0010000020265579224, 0.016758501529693604],
      "min": [-0.016758501529693604, -0.0009999945759773254, -0.01675848662853241],
      "type": "VEC3"
    },
    {
      "bufferView": 19,
      "componentType": 5126,
      "count": 2926,
      "type": "VEC3"
    },
    {
      "bufferView": 20,
      "componentType": 5126,
      "count": 2926,
      "type": "VEC2"
    },
    {
      "bufferView": 21,
      "componentType": 5121,
      "count": 2926,
      "normalized": true,
      "type": "VEC4"
    },
    {
      "bufferView": 22,
      "componentType": 5123,
      "count": 2926,
      "normalized": true,
      "type": "VEC4"
    },
    {
      "bufferView": 23,
      "componentType": 5123,
      "count": 8004,
      "type": "SCALAR"
    },
    {
      "bufferView": 24,
      "componentType": 5126,
      "count": 1884,
      "max": [0.01973249763250351, -1.1641532182693481e-10, 0.019755080342292786],
      "min": [-0.01973249763250351, -0.001999999862164259, -0.019756019115447998],
      "type": "VEC3"
    },
    {
      "bufferView": 25,
      "componentType": 5126,
      "count": 1884,
      "type": "VEC3"
    },
    {
      "bufferView": 26,
      "componentType": 5126,
      "count": 1884,
      "type": "VEC2"
    },
    {
      "bufferView": 27,
      "componentType": 5121,
      "count": 1884,
      "normalized": true,
      "type": "VEC4"
    },
    {
      "bufferView": 28,
      "componentType": 5123,
      "count": 1884,
      "normalized": true,
      "type": "VEC4"
    },
    {
      "bufferView": 29,
      "componentType": 5123,
      "count": 4740,
      "type": "SCALAR"
    },
    {
      "bufferView": 30,
      "componentType": 5126,
      "count": 2954,
      "max": [0.01978190243244171, 0.001000002957880497, 0.019722461700439453],
      "min": [-0.019697099924087524, -0.000999996904283762, -0.01978553831577301],
      "type": "VEC3"
    },
    {
      "bufferView": 31,
      "componentType": 5126,
      "count": 2954,
      "type": "VEC3"
    },
    {
      "bufferView": 32,
      "componentType": 5126,
      "count": 2954,
      "type": "VEC2"
    },
    {
      "bufferView": 33,
      "componentType": 5121,
      "count": 2954,
      "normalized": true,
      "type": "VEC4"
    },
    {
      "bufferView": 34,
      "componentType": 5123,
      "count": 2954,
      "normalized": true,
      "type": "VEC4"
    },
    {
      "bufferView": 35,
      "componentType": 5123,
      "count": 7944,
      "type": "SCALAR"
    },
    {
      "bufferView": 36,
      "componentType": 5126,
      "count": 3561,
      "max": [0.0010000001639127731, 0.024693891406059265, 0.024693995714187622],
      "min": [-0.0010000001639127731, -0.024693891406059265, -0.024693995714187622],
      "type": "VEC3"
    },
    {
      "bufferView": 37,
      "componentType": 5126,
      "count": 3561,
      "type": "VEC3"
    },
    {
      "bufferView": 38,
      "componentType": 5126,
      "count": 3561,
      "type": "VEC2"
    },
    {
      "bufferView": 39,
      "componentType": 5121,
      "count": 3561,
      "normalized": true,
      "type": "VEC4"
    },
    {
      "bufferView": 40,
      "componentType": 5123,
      "count": 3561,
      "normalized": true,
      "type": "VEC4"
    },
    {
      "bufferView": 41,
      "componentType": 5123,
      "count": 9504,
      "type": "SCALAR"
    },
    {
      "bufferView": 42,
      "componentType": 5126,
      "count": 362,
      "max": [0.002099897712469101, 0.00299999862909317, 0.0029977411031723022],
      "min": [-0.0021001026034355164, -0.0030000004917383194, -0.002998247742652893],
      "type": "VEC3"
    },
    {
      "bufferView": 43,
      "componentType": 5126,
      "count": 362,
      "type": "VEC3"
    },
    {
      "bufferView": 44,
      "componentType": 5126,
      "count": 362,
      "type": "VEC2"
    },
    {
      "bufferView": 45,
      "componentType": 5123,
      "count": 362,
      "normalized": true,
      "type": "VEC4"
    },
    {
      "bufferView": 46,
      "componentType": 5123,
      "count": 1080,
      "type": "SCALAR"
    },
    {
      "bufferView": 47,
      "componentType": 5126,
      "count": 2406,
      "max": [0.02715200185775757, 0.0010000001639127731, 0.027158498764038086],
      "min": [-0.02715200185775757, -0.0009999992325901985, -0.02715851366519928],
      "type": "VEC3"
    },
    {
      "bufferView": 48,
      "componentType": 5126,
      "count": 2406,
      "type": "VEC3"
    },
    {
      "bufferView": 49,
      "componentType": 5126,
      "count": 2406,
      "type": "VEC2"
    },
    {
      "bufferView": 50,
      "componentType": 5121,
      "count": 2406,
      "normalized": true,
      "type": "VEC4"
    },
    {
      "bufferView": 51,
      "componentType": 5123,
      "count": 2406,
      "normalized": true,
      "type": "VEC4"
    },
    {
      "bufferView": 52,
      "componentType": 5123,
      "count": 5898,
      "type": "SCALAR"
    },
    {
      "bufferView": 53,
      "componentType": 5126,
      "count": 3658,
      "max": [0.04840099811553955, 0.0010000001639127731, 0.04840148985385895],
      "min": [-0.04840099811553955, -0.0009999992325901985, -0.04840150475502014],
      "type": "VEC3"
    },
    {
      "bufferView": 54,
      "componentType": 5126,
      "count": 3658,
      "type": "VEC3"
    },
    {
      "bufferView": 55,
      "componentType": 5126,
      "count": 3658,
      "type": "VEC2"
    },
    {
      "bufferView": 56,
      "componentType": 5121,
      "count": 3658,
      "normalized": true,
      "type": "VEC4"
    },
    {
      "bufferView": 57,
      "componentType": 5123,
      "count": 3658,
      "normalized": true,
      "type": "VEC4"
    },
    {
      "bufferView": 58,
      "componentType": 5123,
      "count": 8184,
      "type": "SCALAR"
    },
    {
      "bufferView": 59,
      "componentType": 5126,
      "count": 1920,
      "max": [0.00835949182510376, 0.0010000001639127731, 0.008361518383026123],
      "min": [-0.008359506726264954, -0.0010000001639127731, -0.008361488580703735],
      "type": "VEC3"
    },
    {
      "bufferView": 60,
      "componentType": 5126,
      "count": 1920,
      "type": "VEC3"
    },
    {
      "bufferView": 61,
      "componentType": 5126,
      "count": 1920,
      "type": "VEC2"
    },
    {
      "bufferView": 62,
      "componentType": 5121,
      "count": 1920,
      "normalized": true,
      "type": "VEC4"
    },
    {
      "bufferView": 63,
      "componentType": 5123,
      "count": 1920,
      "normalized": true,
      "type": "VEC4"
    },
    {
      "bufferView": 64,
      "componentType": 5123,
      "count": 5388,
      "type": "SCALAR"
    }
  ],
  "bufferViews": [
    {
      "buffer": 0,
      "byteLength": 4344,
      "byteOffset": 0,
      "target": 34962
    },
    {
      "buffer": 0,
      "byteLength": 4344,
      "byteOffset": 4344,
      "target": 34962
    },
    {
      "buffer": 0,
      "byteLength": 2896,
      "byteOffset": 8688,
      "target": 34962
    },
    {
      "buffer": 0,
      "byteLength": 1448,
      "byteOffset": 11584,
      "target": 34962
    },
    {
      "buffer": 0,
      "byteLength": 2896,
      "byteOffset": 13032,
      "target": 34962
    },
    {
      "buffer": 0,
      "byteLength": 2160,
      "byteOffset": 15928,
      "target": 34963
    },
    {
      "buffer": 0,
      "byteLength": 75240,
      "byteOffset": 18088,
      "target": 34962
    },
    {
      "buffer": 0,
      "byteLength": 75240,
      "byteOffset": 93328,
      "target": 34962
    },
    {
      "buffer": 0,
      "byteLength": 50160,
      "byteOffset": 168568,
      "target": 34962
    },
    {
      "buffer": 0,
      "byteLength": 25080,
      "byteOffset": 218728,
      "target": 34962
    },
    {
      "buffer": 0,
      "byteLength": 50160,
      "byteOffset": 243808,
      "target": 34962
    },
    {
      "buffer": 0,
      "byteLength": 26208,
      "byteOffset": 293968,
      "target": 34963
    },
    {
      "buffer": 0,
      "byteLength": 27192,
      "byteOffset": 320176,
      "target": 34962
    },
    {
      "buffer": 0,
      "byteLength": 27192,
      "byteOffset": 347368,
      "target": 34962
    },
    {
      "buffer": 0,
      "byteLength": 18128,
      "byteOffset": 374560,
      "target": 34962
    },
    {
      "buffer": 0,
      "byteLength": 9064,
      "byteOffset": 392688,
      "target": 34962
    },
    {
      "buffer": 0,
      "byteLength": 18128,
      "byteOffset": 401752,
      "target": 34962
    },
    {
      "buffer": 0,
      "byteLength": 10524,
      "byteOffset": 419880,
      "target": 34963
    },
    {
      "buffer": 0,
      "byteLength": 35112,
      "byteOffset": 430404,
      "target": 34962
    },
    {
      "buffer": 0,
      "byteLength": 35112,
      "byteOffset": 465516,
      "target": 34962
    },
    {
      "buffer": 0,
      "byteLength": 23408,
      "byteOffset": 500628,
      "target": 34962
    },
    {
      "buffer": 0,
      "byteLength": 11704,
      "byteOffset": 524036,
      "target": 34962
    },
    {
      "buffer": 0,
      "byteLength": 23408,
      "byteOffset": 535740,
      "target": 34962
    },
    {
      "buffer": 0,
      "byteLength": 16008,
      "byteOffset": 559148,
      "target": 34963
    },
    {
      "buffer": 0,
      "byteLength": 22608,
      "byteOffset": 575156,
      "target": 34962
    },
    {
      "buffer": 0,
      "byteLength": 22608,
      "byteOffset": 597764,
      "target": 34962
    },
    {
      "buffer": 0,
      "byteLength": 15072,
      "byteOffset": 620372,
      "target": 34962
    },
    {
      "buffer": 0,
      "byteLength": 7536,
      "byteOffset": 635444,
      "target": 34962
    },
    {
      "buffer": 0,
      "byteLength": 15072,
      "byteOffset": 642980,
      "target": 34962
    },
    {
      "buffer": 0,
      "byteLength": 9480,
      "byteOffset": 658052,
      "target": 34963
    },
    {
      "buffer": 0,
      "byteLength": 35448,
      "byteOffset": 667532,
      "target": 34962
    },
    {
      "buffer": 0,
      "byteLength": 35448,
      "byteOffset": 702980,
      "target": 34962
    },
    {
      "buffer": 0,
      "byteLength": 23632,
      "byteOffset": 738428,
      "target": 34962
    },
    {
      "buffer": 0,
      "byteLength": 11816,
      "byteOffset": 762060,
      "target": 34962
    },
    {
      "buffer": 0,
      "byteLength": 23632,
      "byteOffset": 773876,
      "target": 34962
    },
    {
      "buffer": 0,
      "byteLength": 15888,
      "byteOffset": 797508,
      "target": 34963
    },
    {
      "buffer": 0,
      "byteLength": 42732,
      "byteOffset": 813396,
      "target": 34962
    },
    {
      "buffer": 0,
      "byteLength": 42732,
      "byteOffset": 856128,
      "target": 34962
    },
    {
      "buffer": 0,
      "byteLength": 28488,
      "byteOffset": 898860,
      "target": 34962
    },
    {
      "buffer": 0,
      "byteLength": 14244,
      "byteOffset": 927348,
      "target": 34962
    },
    {
      "buffer": 0,
      "byteLength": 28488,
      "byteOffset": 941592,
      "target": 34962
    },
    {
      "buffer": 0,
      "byteLength": 19008,
      "byteOffset": 970080,
      "target": 34963
    },
    {
      "buffer": 0,
      "byteLength": 4344,
      "byteOffset": 989088,
      "target": 34962
    },
    {
      "buffer": 0,
      "byteLength": 4344,
      "byteOffset": 993432,
      "target": 34962
    },
    {
      "buffer": 0,
      "byteLength": 2896,
      "byteOffset": 997776,
      "target": 34962
    },
    {
      "buffer": 0,
      "byteLength": 2896,
      "byteOffset": 1000672,
      "target": 34962
    },
    {
      "buffer": 0,
      "byteLength": 2160,
      "byteOffset": 1003568,
      "target": 34963
    },
    {
      "buffer": 0,
      "byteLength": 28872,
      "byteOffset": 1005728,
      "target": 34962
    },
    {
      "buffer": 0,
      "byteLength": 28872,
      "byteOffset": 1034600,
      "target": 34962
    },
    {
      "buffer": 0,
      "byteLength": 19248,
      "byteOffset": 1063472,
      "target": 34962
    },
    {
      "buffer": 0,
      "byteLength": 9624,
      "byteOffset": 1082720,
      "target": 34962
    },
    {
      "buffer": 0,
      "byteLength": 19248,
      "byteOffset": 1092344,
      "target": 34962
    },
    {
      "buffer": 0,
      "byteLength": 11796,
      "byteOffset": 1111592,
      "target": 34963
    },
    {
      "buffer": 0,
      "byteLength": 43896,
      "byteOffset": 1123388,
      "target": 34962
    },
    {
      "buffer": 0,
      "byteLength": 43896,
      "byteOffset": 1167284,
      "target": 34962
    },
    {
      "buffer": 0,
      "byteLength": 29264,
      "byteOffset": 1211180,
      "target": 34962
    },
    {
      "buffer": 0,
      "byteLength": 14632,
      "byteOffset": 1240444,
      "target": 34962
    },
    {
      "buffer": 0,
      "byteLength": 29264,
      "byteOffset": 1255076,
      "target": 34962
    },
    {
      "buffer": 0,
      "byteLength": 16368,
      "byteOffset": 1284340,
      "target": 34963
    },
    {
      "buffer": 0,
      "byteLength": 23040,
      "byteOffset": 1300708,
      "target": 34962
    },
    {
      "buffer": 0,
      "byteLength": 23040,
      "byteOffset": 1323748,
      "target": 34962
    },
    {
      "buffer": 0,
      "byteLength": 15360,
      "byteOffset": 1346788,
      "target": 34962
    },
    {
      "buffer": 0,
      "byteLength": 7680,
      "byteOffset": 1362148,
      "target": 34962
    },
    {
      "buffer": 0,
      "byteLength": 15360,
      "byteOffset": 1369828,
      "target": 34962
    },
    {
      "buffer": 0,
      "byteLength": 10776,
      "byteOffset": 1385188,
      "target": 34963
    }
  ],
  "buffers": [
    {
      "byteLength": 1395964,
      "uri": "Gears.bin"
    }
  ]
}
